<svg xmlns="http://www.w3.org/2000/svg" xmlns:xlink="http://www.w3.org/1999/xlink" width="800.0" height="1207.0" background="#FFFFFF"><g type="COMPO" id="c_8"><path rough-pts="277.55594,264.75665 24.973186,264.75668 24.973183,1099.627 789.49976,1099.6272 789.4995,876.3533 530.1378,876.353 530.138,573.71094 277.55594,573.7112 " stroke-linejoin="round" id="h_1" d="M277.55594 264.75665 L24.973186 264.75668 L24.973183 1099.627 L789.49976 1099.6272 L789.4995 876.3533 L530.1378 876.353 L530.138 573.71094 L277.55594 573.7112 L277.55594 264.75665 " stroke-linecap="round" path-type="area" fill="#ff0000" fill-opacity="1.0"/><line x1="24.973188" y1="264.75668" x2="277.55594" id="n_68" stroke-linecap="round" y2="264.75665" fill="none" stroke-width="30.0" stroke="#ff0000" stroke-opacity="1.0"/><line x1="277.55594" y1="264.75665" x2="277.55594" id="n_69" stroke-linecap="round" y2="573.71094" fill="none" stroke-width="30.0" stroke="#ff0000" stroke-opacity="1.0"/><line x1="277.55594" y1="573.7112" x2="530.138" id="n_70" stroke-linecap="round" y2="573.71094" fill="none" stroke-width="30.0" stroke="#ff0000" stroke-opacity="1.0"/><line x1="530.1378" y1="876.353" x2="789.4995" id="n_72" stroke-linecap="round" y2="876.3533" fill="none" stroke-width="30.0" stroke="#ff0000" stroke-opacity="1.0"/><line x1="789.49976" y1="876.3533" x2="789.49976" id="n_73" stroke-linecap="round" y2="1099.6272" fill="none" stroke-width="30.0" stroke="#ff0000" stroke-opacity="1.0"/><line x1="24.973185" y1="264.75662" x2="24.973183" id="n_74" stroke-linecap="round" y2="1099.627" fill="none" stroke-width="30.0" stroke="#ff0000" stroke-opacity="1.0"/><line x1="24.973186" y1="1099.627" x2="789.49976" id="n_75" stroke-linecap="round" y2="1099.6272" fill="none" stroke-width="30.0" stroke="#ff0000" stroke-opacity="1.0"/><line x1="530.138" y1="573.7107" x2="530.138" id="n_71" stroke-linecap="round" y2="876.3533" fill="none" stroke-width="30.0" stroke="#ff0000" stroke-opacity="1.0"/></g><g type="COMPO" id="c_1"><line x1="786.01166" y1="900.42413" x2="715.9681" id="n_2" stroke-linecap="round" y2="900.4242" fill="none" stroke-width="30.0" stroke="#ff0000" stroke-opacity="1.0"/><line x1="786.01166" y1="900.4242" x2="786.01166" id="n_3" stroke-linecap="round" y2="1096.8889" fill="none" stroke-width="30.0" stroke="#ff0000" stroke-opacity="1.0"/></g></svg>